<svg width="618" height="120" viewBox="0 0 618 120" fill="none" xmlns="http://www.w3.org/2000/svg">
<path d="M57.4668 79.1426L67.916 79.1914L67.9648 12.0527H59.7617V8.29297H89.791V12.0527H81.0996V79.1914H96.041C104.602 79.1914 109.794 75.2363 111.617 67.3262C112.138 65.0475 112.48 62.7038 112.643 60.2949H116.451V83H57.4668V79.1426Z" fill="#6959CB"/>
<path d="M142.916 21.1348C141.614 22.4368 140.035 23.0879 138.18 23.0879C136.324 23.0879 134.729 22.4531 133.395 21.1836C132.06 19.8815 131.393 18.5143 131.393 17.082C131.393 14.6732 132.044 12.8177 133.346 11.5156C134.648 10.2135 136.243 9.5625 138.131 9.5625C141.126 9.5625 143.193 10.9297 144.332 13.6641C144.69 14.4779 144.869 15.3568 144.869 16.3008C144.869 18.2214 144.218 19.8327 142.916 21.1348ZM123.775 79.1914H131.686V36.8574H124.459V33.0488H144.625V79.1914H152.535V83H123.775V79.1914Z" fill="#6959CB"/>
<path d="M191.988 36.8574C186.682 36.8574 181.881 39.3151 177.584 44.2305V79.1914H186.471V83H156.979V79.1914H164.889V36.8574H156.93V33.0488H177.584V39.2988C182.467 34.5788 188.049 32.2188 194.332 32.2188C198.661 32.2188 202.503 33.3255 205.855 35.5391C210.185 38.4036 212.35 42.9609 212.35 49.2109V79.1914H220.26V83H190.768V79.1914H199.654V48.2344C199.654 44.4258 199.247 41.8379 198.434 40.4707C197.652 39.1035 196.757 38.1595 195.748 37.6387C194.771 37.1178 193.518 36.8574 191.988 36.8574Z" fill="#6959CB"/>
<path d="M223.775 79.1914H231.246V4.58203H223.775V0.773438H243.941V57.8047L268.648 36.8086H259.566V33.0488H281.344V36.8086H274.947L259.176 49.9922L279.488 79.1914H286.178V83H258.102V79.1914H264.986L250.24 57.4629L243.941 62.7363V79.1914H251.168V83H223.775V79.1914Z" fill="#6959CB"/>
<path d="M293.6 12.1016H287.057V8.29297H318.307V12.1016H308.883L330.514 67.5215L350.826 12.1016H341.646V8.29297H363.619V12.1016H356.1L329 83.9766H324.85L293.6 12.1016Z" fill="#6959CB"/>
<path d="M400.24 77.4824C396.464 81.8118 391.402 83.9766 385.055 83.9766C380.237 83.9766 376.087 82.6419 372.604 79.9727C369.12 77.2708 367.379 73.7552 367.379 69.4258C367.379 65.0638 369.088 61.6458 372.506 59.1719C375.924 56.6654 380.318 55.4121 385.689 55.4121C391.093 55.4121 395.602 56.763 399.215 59.4648V47.8438C399.215 43.9049 398.727 41.2357 397.75 39.8359C396.773 38.4362 395.618 37.4596 394.283 36.9062C392.981 36.3529 391.533 36.0762 389.938 36.0762C387.431 36.0762 385.315 36.3691 383.59 36.9551C381.865 37.5085 380.709 38.0781 380.123 38.6641C381.62 39.1198 382.776 40.2591 383.59 42.082C383.85 42.7331 383.98 43.5143 383.98 44.4258C383.98 46.2161 383.329 47.7135 382.027 48.918C380.725 50.0898 379.423 50.6758 378.121 50.6758C375.842 50.6758 374.068 50.0736 372.799 48.8691C371.529 47.6647 370.895 46.2161 370.895 44.5234C370.895 42.8307 371.204 41.4473 371.822 40.373C372.441 39.2663 373.271 38.2734 374.312 37.3945C376.298 35.7344 378.788 34.4648 381.783 33.5859C384.811 32.707 387.643 32.2676 390.279 32.2676C397.604 32.2676 403.023 33.7487 406.539 36.7109C410.055 39.6732 411.812 43.8073 411.812 49.1133V75.1387C411.812 77.8405 412.48 79.1914 413.814 79.1914C415.149 79.1914 416.435 78.3776 417.672 76.75L420.211 78.8496C417.997 82.2025 414.384 83.8789 409.371 83.8789C407.613 83.8789 405.823 83.3255 404 82.2188C402.21 81.112 400.956 79.5332 400.24 77.4824ZM399.361 63.8105C396.594 61.1087 393.567 59.7578 390.279 59.7578C386.992 59.7578 384.518 60.5391 382.857 62.1016C381.197 63.6315 380.367 66.1055 380.367 69.5234C380.367 74.569 382.141 77.6289 385.689 78.7031C386.699 79.0286 387.724 79.1914 388.766 79.1914C391.728 79.1914 394.56 78.0521 397.262 75.7734C398.043 75.0898 398.743 74.3574 399.361 73.5762V63.8105Z" fill="#6959CB"/>
<path d="M464.645 78.2148C460.315 82.056 455.628 83.9766 450.582 83.9766C445.569 83.9766 441.321 82.9674 437.838 80.9492C433.02 78.1172 430.611 73.3809 430.611 66.7402V36.8574H423.678V33.0488H443.307V68.9863C443.307 75.8548 446.48 79.2891 452.828 79.2891C457.223 79.2891 461.161 77.2708 464.645 73.2344V36.8574H456.197V33.0488H477.242V79.1914H483.541V83H464.645V78.2148Z" fill="#6959CB"/>
<path d="M490.914 79.1914H498.531V4.63086H490.572V0.773438H511.471V79.1914H519.674V83H490.914V79.1914Z" fill="#6959CB"/>
<path d="M547.506 83.9766C535.885 83.9766 530.074 78.5729 530.074 67.7656V36.8574H524.166V33.0488H530.074V18.1074C533.036 18.1074 536.65 17.3424 540.914 15.8125C541.891 15.4544 542.59 15.1452 543.014 14.8848V33.0488H559.078V36.8574H543.014V71.2812C543.014 74.276 543.632 76.4408 544.869 77.7754C546.139 79.0775 547.815 79.7285 549.898 79.7285C553.154 79.7285 556.083 78.2799 558.688 75.3828L561.275 77.6777C558.932 80.5749 555.742 82.5117 551.705 83.4883C550.37 83.8138 548.971 83.9766 547.506 83.9766Z" fill="#6959CB"/>
<path d="M15.0308 95.6416C15.3563 95.2591 15.5272 94.8197 15.5435 94.3232H16.5444V99.438H15.5068C15.2708 98.0871 14.6239 97.0251 13.5659 96.252C12.5161 95.4788 11.3727 95.0923 10.1357 95.0923C6.0179 95.0923 3.97526 97.9691 4.00781 103.723C4.03223 106.009 4.48796 107.91 5.375 109.423C6.40039 111.173 7.88965 112.048 9.84277 112.048C11.332 112.048 12.5894 111.787 13.6147 111.267C14.6483 110.738 15.458 110.026 16.0439 109.13L16.6787 109.716C16.3695 110.457 15.7266 111.165 14.75 111.84C13.4072 112.776 11.7227 113.244 9.69629 113.244C6.81543 113.244 4.52051 112.349 2.81152 110.559C1.10254 108.76 0.248047 106.473 0.248047 103.698C0.248047 100.923 1.09847 98.6283 2.79932 96.8135C4.5083 94.9906 6.88053 94.0791 9.91602 94.0791C11.5599 94.0791 12.9922 94.4128 14.2129 95.0801C14.5547 95.2673 14.8273 95.4544 15.0308 95.6416Z" fill="#6959CB"/>
<path d="M27.1401 111.621C26.1961 112.703 24.9307 113.244 23.3438 113.244C22.1393 113.244 21.1017 112.91 20.231 112.243C19.3602 111.568 18.9248 110.689 18.9248 109.606C18.9248 108.516 19.3521 107.661 20.2065 107.043C21.061 106.416 22.1597 106.103 23.5024 106.103C24.8534 106.103 25.9805 106.441 26.8838 107.116V104.211C26.8838 103.226 26.7617 102.559 26.5176 102.209C26.2734 101.859 25.9845 101.615 25.6509 101.477C25.3254 101.338 24.9632 101.269 24.5645 101.269C23.9378 101.269 23.4089 101.342 22.9775 101.489C22.5462 101.627 22.2573 101.77 22.1108 101.916C22.4852 102.03 22.7741 102.315 22.9775 102.771C23.0426 102.933 23.0752 103.129 23.0752 103.356C23.0752 103.804 22.9124 104.178 22.5869 104.479C22.2614 104.772 21.9359 104.919 21.6104 104.919C21.0407 104.919 20.5972 104.768 20.2798 104.467C19.9624 104.166 19.8037 103.804 19.8037 103.381C19.8037 102.958 19.881 102.612 20.0356 102.343C20.1903 102.067 20.3978 101.818 20.6582 101.599C21.1546 101.184 21.7772 100.866 22.5259 100.646C23.2827 100.427 23.9907 100.317 24.6499 100.317C26.481 100.317 27.8359 100.687 28.7148 101.428C29.5938 102.168 30.0332 103.202 30.0332 104.528V111.035C30.0332 111.71 30.2 112.048 30.5337 112.048C30.8674 112.048 31.1888 111.844 31.498 111.438L32.1328 111.962C31.5794 112.801 30.6761 113.22 29.4229 113.22C28.9834 113.22 28.5358 113.081 28.0801 112.805C27.6325 112.528 27.3192 112.133 27.1401 111.621ZM26.9204 108.203C26.2287 107.527 25.4718 107.189 24.6499 107.189C23.828 107.189 23.2095 107.385 22.7944 107.775C22.3794 108.158 22.1719 108.776 22.1719 109.631C22.1719 110.892 22.6154 111.657 23.5024 111.926C23.7547 112.007 24.0111 112.048 24.2715 112.048C25.012 112.048 25.7201 111.763 26.3955 111.193C26.5908 111.022 26.7658 110.839 26.9204 110.644V108.203Z" fill="#6959CB"/>
<path d="M38.1387 101.843C39.0827 100.817 40.5231 100.305 42.46 100.305C43.1029 100.305 43.7702 100.431 44.4619 100.683C45.1618 100.927 45.7721 101.314 46.293 101.843C47.4323 102.99 48.002 104.593 48.002 106.652C48.002 108.711 47.4119 110.327 46.2319 111.499C45.0519 112.662 43.6115 113.244 41.9106 113.244C40.8201 113.244 39.8151 113.02 38.8955 112.573C38.6107 112.434 38.3584 112.28 38.1387 112.109V118.884H40.3481V119.836H33.1338V118.884H34.9648V101.489H33.0117V100.512H38.1387V101.843ZM41.3979 112.194C43.522 112.194 44.584 110.404 44.584 106.823C44.584 104.162 44.0103 102.486 42.8628 101.794C42.464 101.55 41.9554 101.432 41.3369 101.44C40.7184 101.448 40.1203 101.623 39.5425 101.965C38.9728 102.307 38.5049 102.758 38.1387 103.32V110.803C38.749 111.462 39.5506 111.893 40.5435 112.097C40.8364 112.162 41.1213 112.194 41.3979 112.194Z" fill="#6959CB"/>
<path d="M55.6069 113.244C52.7017 113.244 51.249 111.893 51.249 109.191V101.464H49.772V100.512H51.249V96.7769C51.9896 96.7769 52.8929 96.5856 53.959 96.2031C54.2031 96.1136 54.3781 96.0363 54.4839 95.9712V100.512H58.5V101.464H54.4839V110.07C54.4839 110.819 54.6385 111.36 54.9478 111.694C55.2651 112.019 55.6842 112.182 56.2051 112.182C57.0189 112.182 57.7513 111.82 58.4023 111.096L59.0493 111.669C58.4634 112.394 57.6659 112.878 56.6567 113.122C56.3231 113.203 55.9731 113.244 55.6069 113.244Z" fill="#6959CB"/>
<path d="M70.3408 111.804C69.2585 112.764 68.0866 113.244 66.8252 113.244C65.5719 113.244 64.5099 112.992 63.6392 112.487C62.4347 111.779 61.8325 110.595 61.8325 108.935V101.464H60.0991V100.512H65.0063V109.497C65.0063 111.214 65.7998 112.072 67.3867 112.072C68.4854 112.072 69.4701 111.568 70.3408 110.559V101.464H68.229V100.512H73.4902V112.048H75.0649V113H70.3408V111.804Z" fill="#6959CB"/>
<path d="M82.2549 102.197C83.5651 100.935 84.9811 100.305 86.5029 100.305C86.9912 100.305 87.4225 100.467 87.7969 100.793C88.1712 101.118 88.3584 101.538 88.3584 102.05C88.3584 102.555 88.1997 102.966 87.8823 103.283C87.5649 103.601 87.1784 103.759 86.7227 103.759C86.2669 103.759 85.8804 103.605 85.563 103.295C85.2537 102.978 85.0991 102.587 85.0991 102.124C85.0991 101.936 85.1317 101.745 85.1968 101.55C84.0168 101.908 83.0361 102.514 82.2549 103.369V112.06H84.9282V113H77.2378V112.06H79.0566V101.464H77.2256V100.512H82.2549V102.197Z" fill="#6959CB"/>
<path d="M101.762 110.864C100.484 112.451 98.6652 113.244 96.3052 113.244C95.5239 113.244 94.7101 113.081 93.8638 112.756C93.0174 112.422 92.2972 111.966 91.7031 111.389C90.4743 110.168 89.8599 108.614 89.8599 106.726C89.8599 104.829 90.4784 103.287 91.7153 102.099C92.9523 100.911 94.5229 100.317 96.4272 100.317C99.2267 100.317 100.989 101.489 101.713 103.833C101.949 104.581 102.067 105.424 102.067 106.359H93.229V106.726C93.229 109.24 93.9411 110.892 95.3652 111.682C95.8454 111.95 96.4191 112.084 97.0864 112.084C98.5675 112.084 99.9103 111.482 101.115 110.278L101.762 110.864ZM98.7832 105.358C98.7669 104.056 98.5675 103.063 98.1851 102.38C97.8026 101.688 97.1759 101.342 96.3052 101.342C94.5392 101.342 93.5342 102.681 93.29 105.358H98.7832Z" fill="#6959CB"/>
<path d="M120.915 111.621C119.971 112.703 118.705 113.244 117.118 113.244C115.914 113.244 114.876 112.91 114.005 112.243C113.135 111.568 112.699 110.689 112.699 109.606C112.699 108.516 113.126 107.661 113.981 107.043C114.835 106.416 115.934 106.103 117.277 106.103C118.628 106.103 119.755 106.441 120.658 107.116V104.211C120.658 103.226 120.536 102.559 120.292 102.209C120.048 101.859 119.759 101.615 119.425 101.477C119.1 101.338 118.738 101.269 118.339 101.269C117.712 101.269 117.183 101.342 116.752 101.489C116.321 101.627 116.032 101.77 115.885 101.916C116.26 102.03 116.549 102.315 116.752 102.771C116.817 102.933 116.85 103.129 116.85 103.356C116.85 103.804 116.687 104.178 116.361 104.479C116.036 104.772 115.71 104.919 115.385 104.919C114.815 104.919 114.372 104.768 114.054 104.467C113.737 104.166 113.578 103.804 113.578 103.381C113.578 102.958 113.655 102.612 113.81 102.343C113.965 102.067 114.172 101.818 114.433 101.599C114.929 101.184 115.552 100.866 116.3 100.646C117.057 100.427 117.765 100.317 118.424 100.317C120.255 100.317 121.61 100.687 122.489 101.428C123.368 102.168 123.808 103.202 123.808 104.528V111.035C123.808 111.71 123.974 112.048 124.308 112.048C124.642 112.048 124.963 111.844 125.272 111.438L125.907 111.962C125.354 112.801 124.451 113.22 123.197 113.22C122.758 113.22 122.31 113.081 121.854 112.805C121.407 112.528 121.094 112.133 120.915 111.621ZM120.695 108.203C120.003 107.527 119.246 107.189 118.424 107.189C117.602 107.189 116.984 107.385 116.569 107.775C116.154 108.158 115.946 108.776 115.946 109.631C115.946 110.892 116.39 111.657 117.277 111.926C117.529 112.007 117.785 112.048 118.046 112.048C118.786 112.048 119.494 111.763 120.17 111.193C120.365 111.022 120.54 110.839 120.695 110.644V108.203Z" fill="#6959CB"/>
<path d="M135.624 101.464C134.298 101.464 133.097 102.079 132.023 103.308V112.048H134.245V113H126.872V112.048H128.849V101.464H126.859V100.512H132.023V102.075C133.244 100.895 134.639 100.305 136.21 100.305C137.292 100.305 138.253 100.581 139.091 101.135C140.173 101.851 140.714 102.99 140.714 104.553V112.048H142.692V113H135.319V112.048H137.541V104.309C137.541 103.356 137.439 102.709 137.235 102.368C137.04 102.026 136.816 101.79 136.564 101.66C136.32 101.529 136.007 101.464 135.624 101.464Z" fill="#6959CB"/>
<path d="M154.142 111.73C153.182 112.74 151.745 113.244 149.833 113.244C149.198 113.244 148.531 113.122 147.831 112.878C147.139 112.626 146.529 112.235 146 111.706C145.479 111.177 145.064 110.506 144.755 109.692C144.454 108.87 144.303 107.922 144.303 106.848C144.303 104.829 144.893 103.234 146.073 102.062C147.253 100.891 148.694 100.305 150.395 100.305C151.469 100.305 152.462 100.524 153.373 100.964C153.666 101.102 153.922 101.257 154.142 101.428V93.3955H151.615V92.4434H157.316V112.048H159.123V113H154.142V111.73ZM150.907 101.354C148.783 101.354 147.721 103.145 147.721 106.726C147.721 109.387 148.295 111.063 149.442 111.755C149.841 111.999 150.346 112.121 150.956 112.121C151.575 112.113 152.165 111.942 152.726 111.608C153.296 111.275 153.768 110.827 154.142 110.266V102.722C153.515 102.071 152.718 101.647 151.75 101.452C151.457 101.387 151.176 101.354 150.907 101.354Z" fill="#6959CB"/>
<path d="M171.598 111.584C171.264 111.958 171.098 112.43 171.098 113H170.011V108.02H171.269C171.586 109.273 172.245 110.29 173.246 111.071C174.255 111.844 175.472 112.231 176.896 112.231C178.678 112.231 179.87 111.739 180.473 110.754C180.668 110.42 180.766 110.046 180.766 109.631C180.766 108.744 180.452 107.983 179.826 107.348C179.199 106.713 178.125 106.119 176.603 105.566C175.089 105.004 173.942 104.492 173.161 104.028C172.388 103.564 171.777 103.076 171.33 102.563C170.54 101.66 170.146 100.476 170.146 99.0107C170.146 97.5459 170.772 96.3577 172.025 95.4463C173.287 94.5348 174.817 94.0791 176.615 94.0791C177.632 94.0791 178.495 94.1971 179.203 94.4331C179.919 94.6691 180.465 94.9458 180.839 95.2632C181.034 94.9784 181.14 94.665 181.156 94.3232H182.292V98.8643H181.12C180.998 97.6598 180.493 96.7321 179.606 96.0811C178.727 95.4219 177.706 95.0923 176.542 95.0923C175.386 95.0923 174.442 95.3324 173.71 95.8125C172.978 96.2845 172.611 96.9315 172.611 97.7534C172.611 98.5754 172.953 99.2956 173.637 99.9141C174.32 100.533 175.716 101.306 177.824 102.233C179.801 103.039 181.181 103.857 181.962 104.687C182.743 105.509 183.134 106.526 183.134 107.739C183.134 109.448 182.532 110.795 181.327 111.779C180.131 112.756 178.678 113.244 176.969 113.244C175.268 113.244 173.787 112.902 172.526 112.219C172.152 112.015 171.842 111.804 171.598 111.584Z" fill="#6959CB"/>
<path d="M191.056 113.244C188.151 113.244 186.698 111.893 186.698 109.191V101.464H185.221V100.512H186.698V96.7769C187.439 96.7769 188.342 96.5856 189.408 96.2031C189.652 96.1136 189.827 96.0363 189.933 95.9712V100.512H193.949V101.464H189.933V110.07C189.933 110.819 190.088 111.36 190.397 111.694C190.714 112.019 191.133 112.182 191.654 112.182C192.468 112.182 193.201 111.82 193.852 111.096L194.499 111.669C193.913 112.394 193.115 112.878 192.106 113.122C191.772 113.203 191.422 113.244 191.056 113.244Z" fill="#6959CB"/>
<path d="M195.829 106.75C195.829 104.829 196.439 103.275 197.66 102.087C198.881 100.899 200.415 100.305 202.262 100.305C204.118 100.305 205.644 100.899 206.84 102.087C208.044 103.267 208.646 104.821 208.646 106.75C208.646 108.671 208.048 110.233 206.852 111.438C205.664 112.642 204.138 113.244 202.274 113.244C200.411 113.244 198.869 112.642 197.648 111.438C196.435 110.233 195.829 108.671 195.829 106.75ZM202.238 112.231C203.882 112.231 204.846 111.112 205.131 108.874C205.212 108.207 205.253 107.491 205.253 106.726C205.253 105.008 205.058 103.723 204.667 102.868C204.187 101.843 203.377 101.33 202.238 101.33C200.594 101.33 199.63 102.412 199.345 104.577C199.263 105.236 199.223 105.952 199.223 106.726C199.223 108.451 199.418 109.753 199.809 110.632C200.297 111.698 201.107 112.231 202.238 112.231Z" fill="#6959CB"/>
<path d="M215.604 102.197C216.915 100.935 218.331 100.305 219.853 100.305C220.341 100.305 220.772 100.467 221.146 100.793C221.521 101.118 221.708 101.538 221.708 102.05C221.708 102.555 221.549 102.966 221.232 103.283C220.915 103.601 220.528 103.759 220.072 103.759C219.617 103.759 219.23 103.605 218.913 103.295C218.603 102.978 218.449 102.587 218.449 102.124C218.449 101.936 218.481 101.745 218.546 101.55C217.366 101.908 216.386 102.514 215.604 103.369V112.06H218.278V113H210.587V112.06H212.406V101.464H210.575V100.512H215.604V102.197Z" fill="#6959CB"/>
<path d="M235.111 110.864C233.834 112.451 232.015 113.244 229.655 113.244C228.874 113.244 228.06 113.081 227.213 112.756C226.367 112.422 225.647 111.966 225.053 111.389C223.824 110.168 223.209 108.614 223.209 106.726C223.209 104.829 223.828 103.287 225.065 102.099C226.302 100.911 227.873 100.317 229.777 100.317C232.576 100.317 234.338 101.489 235.062 103.833C235.299 104.581 235.417 105.424 235.417 106.359H226.579V106.726C226.579 109.24 227.291 110.892 228.715 111.682C229.195 111.95 229.769 112.084 230.436 112.084C231.917 112.084 233.26 111.482 234.464 110.278L235.111 110.864ZM232.133 105.358C232.117 104.056 231.917 103.063 231.535 102.38C231.152 101.688 230.526 101.342 229.655 101.342C227.889 101.342 226.884 102.681 226.64 105.358H232.133Z" fill="#6959CB"/>
<path d="M250.395 112.048H252.812L252.824 105.798L246.574 95.2754H245.048V94.3232H252.909V95.2754H250.431L255.424 104.052L260.38 95.2754H258.134V94.3232H263.529V95.2754H261.686L256.107 105.041V112.048H258.537V113H250.395V112.048Z" fill="#6959CB"/>
<path d="M264.604 106.75C264.604 104.829 265.214 103.275 266.435 102.087C267.655 100.899 269.189 100.305 271.037 100.305C272.892 100.305 274.418 100.899 275.614 102.087C276.819 103.267 277.421 104.821 277.421 106.75C277.421 108.671 276.823 110.233 275.626 111.438C274.438 112.642 272.912 113.244 271.049 113.244C269.185 113.244 267.643 112.642 266.422 111.438C265.21 110.233 264.604 108.671 264.604 106.75ZM271.012 112.231C272.656 112.231 273.62 111.112 273.905 108.874C273.987 108.207 274.027 107.491 274.027 106.726C274.027 105.008 273.832 103.723 273.441 102.868C272.961 101.843 272.152 101.33 271.012 101.33C269.368 101.33 268.404 102.412 268.119 104.577C268.038 105.236 267.997 105.952 267.997 106.726C267.997 108.451 268.192 109.753 268.583 110.632C269.071 111.698 269.881 112.231 271.012 112.231Z" fill="#6959CB"/>
<path d="M289.14 111.804C288.057 112.764 286.885 113.244 285.624 113.244C284.371 113.244 283.309 112.992 282.438 112.487C281.234 111.779 280.631 110.595 280.631 108.935V101.464H278.898V100.512H283.805V109.497C283.805 111.214 284.599 112.072 286.186 112.072C287.284 112.072 288.269 111.568 289.14 110.559V101.464H287.028V100.512H292.289V112.048H293.864V113H289.14V111.804Z" fill="#6959CB"/>
<path d="M301.054 102.197C302.364 100.935 303.78 100.305 305.302 100.305C305.79 100.305 306.221 100.467 306.596 100.793C306.97 101.118 307.157 101.538 307.157 102.05C307.157 102.555 306.999 102.966 306.681 103.283C306.364 103.601 305.977 103.759 305.521 103.759C305.066 103.759 304.679 103.605 304.362 103.295C304.053 102.978 303.898 102.587 303.898 102.124C303.898 101.936 303.931 101.745 303.996 101.55C302.816 101.908 301.835 102.514 301.054 103.369V112.06H303.727V113H296.037V112.06H297.855V101.464H296.024V100.512H301.054V102.197Z" fill="#6959CB"/>
<path d="M316.557 112.048H318.803V95.2754H316.532V94.3232H322.904L328.41 107.91L333.878 94.3232H340.043V95.2754H337.663V112.048H340.263V113H332.145V112.048H334.367L334.379 95.8003L327.592 112.744H327.104L319.914 95.7148V112.048H322.123V113H316.557V112.048Z" fill="#6959CB"/>
<path d="M341.703 106.75C341.703 104.829 342.313 103.275 343.534 102.087C344.755 100.899 346.289 100.305 348.136 100.305C349.992 100.305 351.518 100.899 352.714 102.087C353.918 103.267 354.521 104.821 354.521 106.75C354.521 108.671 353.922 110.233 352.726 111.438C351.538 112.642 350.012 113.244 348.148 113.244C346.285 113.244 344.743 112.642 343.522 111.438C342.309 110.233 341.703 108.671 341.703 106.75ZM348.112 112.231C349.756 112.231 350.72 111.112 351.005 108.874C351.086 108.207 351.127 107.491 351.127 106.726C351.127 105.008 350.932 103.723 350.541 102.868C350.061 101.843 349.251 101.33 348.112 101.33C346.468 101.33 345.504 102.412 345.219 104.577C345.137 105.236 345.097 105.952 345.097 106.726C345.097 108.451 345.292 109.753 345.683 110.632C346.171 111.698 346.981 112.231 348.112 112.231Z" fill="#6959CB"/>
<path d="M364.579 101.477C363.326 101.477 362.227 102.034 361.283 103.149V112.048H363.273V113H356.132V112.048H358.109V101.44H356.12V100.512H361.283V101.904C362.447 100.838 363.704 100.305 365.055 100.305C366.414 100.305 367.521 100.675 368.375 101.416C368.685 101.684 368.941 102.018 369.145 102.417C370.43 101.009 371.891 100.305 373.527 100.305C374.609 100.305 375.574 100.581 376.42 101.135C377.494 101.851 378.031 102.99 378.031 104.553V112.048H380.021V113H372.758V112.048H374.857V104.187C374.857 103.299 374.752 102.689 374.54 102.355C374.328 102.022 374.097 101.794 373.844 101.672C373.6 101.542 373.295 101.477 372.929 101.477C372.221 101.477 371.57 101.656 370.976 102.014C370.382 102.372 369.889 102.848 369.499 103.442C369.556 103.784 369.584 104.097 369.584 104.382V112.048H371.574V113H364.433V112.048H366.41V104.101C366.41 103.247 366.317 102.661 366.129 102.343C365.942 102.018 365.727 101.794 365.482 101.672C365.246 101.542 364.945 101.477 364.579 101.477Z" fill="#6959CB"/>
<path d="M393.412 110.864C392.134 112.451 390.316 113.244 387.956 113.244C387.174 113.244 386.361 113.081 385.514 112.756C384.668 112.422 383.948 111.966 383.354 111.389C382.125 110.168 381.51 108.614 381.51 106.726C381.51 104.829 382.129 103.287 383.366 102.099C384.603 100.911 386.173 100.317 388.078 100.317C390.877 100.317 392.639 101.489 393.363 103.833C393.599 104.581 393.717 105.424 393.717 106.359H384.879V106.726C384.879 109.24 385.591 110.892 387.016 111.682C387.496 111.95 388.069 112.084 388.737 112.084C390.218 112.084 391.561 111.482 392.765 110.278L393.412 110.864ZM390.434 105.358C390.417 104.056 390.218 103.063 389.835 102.38C389.453 101.688 388.826 101.342 387.956 101.342C386.19 101.342 385.185 102.681 384.94 105.358H390.434Z" fill="#6959CB"/>
<path d="M404.35 101.464C403.023 101.464 401.823 102.079 400.749 103.308V112.048H402.97V113H395.597V112.048H397.575V101.464H395.585V100.512H400.749V102.075C401.969 100.895 403.365 100.305 404.936 100.305C406.018 100.305 406.978 100.581 407.816 101.135C408.899 101.851 409.44 102.99 409.44 104.553V112.048H411.417V113H404.044V112.048H406.266V104.309C406.266 103.356 406.164 102.709 405.961 102.368C405.766 102.026 405.542 101.79 405.29 101.66C405.045 101.529 404.732 101.464 404.35 101.464Z" fill="#6959CB"/>
<path d="M418.107 113.244C415.202 113.244 413.749 111.893 413.749 109.191V101.464H412.272V100.512H413.749V96.7769C414.49 96.7769 415.393 96.5856 416.459 96.2031C416.703 96.1136 416.878 96.0363 416.984 95.9712V100.512H421V101.464H416.984V110.07C416.984 110.819 417.139 111.36 417.448 111.694C417.765 112.019 418.184 112.182 418.705 112.182C419.519 112.182 420.251 111.82 420.902 111.096L421.549 111.669C420.963 112.394 420.166 112.878 419.157 113.122C418.823 113.203 418.473 113.244 418.107 113.244Z" fill="#6959CB"/>
<path d="M425.26 112.109C425 112.288 424.853 112.585 424.821 113H423.649L423.698 109.326H424.821C424.821 109.952 425.211 110.595 425.993 111.254C426.782 111.914 427.779 112.243 428.983 112.243C430.188 112.243 430.953 111.893 431.278 111.193C431.368 110.99 431.413 110.778 431.413 110.559C431.413 110.152 431.132 109.777 430.57 109.436C430.017 109.094 429.101 108.695 427.824 108.239C426.554 107.784 425.553 107.198 424.821 106.481C424.088 105.757 423.722 104.878 423.722 103.845C423.722 102.803 424.186 101.953 425.114 101.293C426.042 100.634 427.112 100.305 428.324 100.305C429.545 100.305 430.526 100.606 431.266 101.208C431.494 101.135 431.673 100.956 431.803 100.671C431.852 100.573 431.876 100.455 431.876 100.317H432.804V103.723H431.73C431.592 102.958 431.221 102.364 430.619 101.94C430.025 101.509 429.325 101.293 428.52 101.293C427.714 101.293 427.091 101.452 426.652 101.77C426.221 102.079 426.005 102.457 426.005 102.905C426.005 103.352 426.253 103.763 426.75 104.138C427.254 104.504 427.962 104.85 428.874 105.175C429.793 105.493 430.513 105.773 431.034 106.018C432.702 106.823 433.537 107.991 433.537 109.521C433.537 111.043 432.682 112.15 430.973 112.841C430.306 113.11 429.626 113.244 428.935 113.244C427.494 113.244 426.269 112.866 425.26 112.109Z" fill="#6959CB"/>
<path d="M443.705 106.75C443.705 104.829 444.315 103.275 445.536 102.087C446.757 100.899 448.291 100.305 450.138 100.305C451.994 100.305 453.52 100.899 454.716 102.087C455.92 103.267 456.522 104.821 456.522 106.75C456.522 108.671 455.924 110.233 454.728 111.438C453.54 112.642 452.014 113.244 450.15 113.244C448.287 113.244 446.745 112.642 445.524 111.438C444.311 110.233 443.705 108.671 443.705 106.75ZM450.114 112.231C451.758 112.231 452.722 111.112 453.007 108.874C453.088 108.207 453.129 107.491 453.129 106.726C453.129 105.008 452.934 103.723 452.543 102.868C452.063 101.843 451.253 101.33 450.114 101.33C448.47 101.33 447.506 102.412 447.221 104.577C447.139 105.236 447.099 105.952 447.099 106.726C447.099 108.451 447.294 109.753 447.685 110.632C448.173 111.698 448.983 112.231 450.114 112.231Z" fill="#6959CB"/>
<path d="M466.19 95.5439C466.19 94.5999 466.622 94.0588 467.484 93.9204C467.395 93.7251 467.2 93.5583 466.898 93.4199C466.605 93.2816 466.272 93.2124 465.897 93.2124C465.198 93.2124 464.722 93.5094 464.469 94.1035C464.217 94.6895 464.091 95.5968 464.091 96.8257V100.512H466.581L466.825 101.464H464.079V112.048H466.642V113H458.927V112.048H460.905V101.464H458.927V100.512H460.905V97.4238C460.905 95.7311 461.328 94.4453 462.174 93.5664C463.021 92.6875 464.148 92.248 465.556 92.248C466.654 92.248 467.541 92.5329 468.217 93.1025C468.9 93.6722 469.242 94.3477 469.242 95.1289C469.242 95.9102 468.913 96.4391 468.253 96.7158C468.066 96.7891 467.822 96.8257 467.521 96.8257C467.22 96.8257 466.923 96.6955 466.63 96.4351C466.337 96.1746 466.19 95.8776 466.19 95.5439Z" fill="#6959CB"/>
<path d="M477.335 112.048H479.74L479.752 95.2754H477.335V94.3232H485.441V95.2754H483.036V112.048H485.441V113H477.335V112.048Z" fill="#6959CB"/>
<path d="M496.049 101.464C494.722 101.464 493.522 102.079 492.448 103.308V112.048H494.669V113H487.296V112.048H489.274V101.464H487.284V100.512H492.448V102.075C493.668 100.895 495.064 100.305 496.635 100.305C497.717 100.305 498.677 100.581 499.516 101.135C500.598 101.851 501.139 102.99 501.139 104.553V112.048H503.117V113H495.744V112.048H497.965V104.309C497.965 103.356 497.864 102.709 497.66 102.368C497.465 102.026 497.241 101.79 496.989 101.66C496.745 101.529 496.431 101.464 496.049 101.464Z" fill="#6959CB"/>
<path d="M506.535 112.109C506.274 112.288 506.128 112.585 506.095 113H504.923L504.972 109.326H506.095C506.095 109.952 506.486 110.595 507.267 111.254C508.056 111.914 509.053 112.243 510.258 112.243C511.462 112.243 512.227 111.893 512.553 111.193C512.642 110.99 512.687 110.778 512.687 110.559C512.687 110.152 512.406 109.777 511.845 109.436C511.291 109.094 510.376 108.695 509.098 108.239C507.829 107.784 506.828 107.198 506.095 106.481C505.363 105.757 504.997 104.878 504.997 103.845C504.997 102.803 505.46 101.953 506.388 101.293C507.316 100.634 508.386 100.305 509.599 100.305C510.819 100.305 511.8 100.606 512.541 101.208C512.768 101.135 512.947 100.956 513.078 100.671C513.126 100.573 513.151 100.455 513.151 100.317H514.079V103.723H513.004C512.866 102.958 512.496 102.364 511.894 101.94C511.299 101.509 510.6 101.293 509.794 101.293C508.988 101.293 508.366 101.452 507.926 101.77C507.495 102.079 507.279 102.457 507.279 102.905C507.279 103.352 507.528 103.763 508.024 104.138C508.528 104.504 509.236 104.85 510.148 105.175C511.068 105.493 511.788 105.773 512.309 106.018C513.977 106.823 514.811 107.991 514.811 109.521C514.811 111.043 513.957 112.15 512.248 112.841C511.58 113.11 510.901 113.244 510.209 113.244C508.769 113.244 507.544 112.866 506.535 112.109Z" fill="#6959CB"/>
<path d="M521.513 101.843C522.457 100.817 523.897 100.305 525.834 100.305C526.477 100.305 527.144 100.431 527.836 100.683C528.536 100.927 529.146 101.314 529.667 101.843C530.806 102.99 531.376 104.593 531.376 106.652C531.376 108.711 530.786 110.327 529.606 111.499C528.426 112.662 526.986 113.244 525.285 113.244C524.194 113.244 523.189 113.02 522.27 112.573C521.985 112.434 521.732 112.28 521.513 112.109V118.884H523.722V119.836H516.508V118.884H518.339V101.489H516.386V100.512H521.513V101.843ZM524.772 112.194C526.896 112.194 527.958 110.404 527.958 106.823C527.958 104.162 527.384 102.486 526.237 101.794C525.838 101.55 525.329 101.432 524.711 101.44C524.092 101.448 523.494 101.623 522.917 101.965C522.347 102.307 521.879 102.758 521.513 103.32V110.803C522.123 111.462 522.925 111.893 523.917 112.097C524.21 112.162 524.495 112.194 524.772 112.194Z" fill="#6959CB"/>
<path d="M537.98 97.5337C537.654 97.8592 537.26 98.022 536.796 98.022C536.332 98.022 535.933 97.8633 535.6 97.5459C535.266 97.2204 535.099 96.8786 535.099 96.5205C535.099 95.9183 535.262 95.4544 535.587 95.1289C535.913 94.8034 536.312 94.6406 536.784 94.6406C537.532 94.6406 538.049 94.9824 538.334 95.666C538.424 95.8695 538.468 96.0892 538.468 96.3252C538.468 96.8053 538.306 97.2082 537.98 97.5337ZM533.195 112.048H535.172V101.464H533.366V100.512H538.407V112.048H540.385V113H533.195V112.048Z" fill="#6959CB"/>
<path d="M546.879 102.197C548.189 100.935 549.605 100.305 551.127 100.305C551.615 100.305 552.047 100.467 552.421 100.793C552.795 101.118 552.982 101.538 552.982 102.05C552.982 102.555 552.824 102.966 552.506 103.283C552.189 103.601 551.802 103.759 551.347 103.759C550.891 103.759 550.504 103.605 550.187 103.295C549.878 102.978 549.723 102.587 549.723 102.124C549.723 101.936 549.756 101.745 549.821 101.55C548.641 101.908 547.66 102.514 546.879 103.369V112.06H549.552V113H541.862V112.06H543.681V101.464H541.85V100.512H546.879V102.197Z" fill="#6959CB"/>
<path d="M562.638 111.621C561.694 112.703 560.429 113.244 558.842 113.244C557.637 113.244 556.6 112.91 555.729 112.243C554.858 111.568 554.423 110.689 554.423 109.606C554.423 108.516 554.85 107.661 555.705 107.043C556.559 106.416 557.658 106.103 559 106.103C560.351 106.103 561.479 106.441 562.382 107.116V104.211C562.382 103.226 562.26 102.559 562.016 102.209C561.771 101.859 561.483 101.615 561.149 101.477C560.823 101.338 560.461 101.269 560.062 101.269C559.436 101.269 558.907 101.342 558.476 101.489C558.044 101.627 557.755 101.77 557.609 101.916C557.983 102.03 558.272 102.315 558.476 102.771C558.541 102.933 558.573 103.129 558.573 103.356C558.573 103.804 558.41 104.178 558.085 104.479C557.759 104.772 557.434 104.919 557.108 104.919C556.539 104.919 556.095 104.768 555.778 104.467C555.46 104.166 555.302 103.804 555.302 103.381C555.302 102.958 555.379 102.612 555.534 102.343C555.688 102.067 555.896 101.818 556.156 101.599C556.653 101.184 557.275 100.866 558.024 100.646C558.781 100.427 559.489 100.317 560.148 100.317C561.979 100.317 563.334 100.687 564.213 101.428C565.092 102.168 565.531 103.202 565.531 104.528V111.035C565.531 111.71 565.698 112.048 566.032 112.048C566.365 112.048 566.687 111.844 566.996 111.438L567.631 111.962C567.077 112.801 566.174 113.22 564.921 113.22C564.481 113.22 564.034 113.081 563.578 112.805C563.131 112.528 562.817 112.133 562.638 111.621ZM562.418 108.203C561.727 107.527 560.97 107.189 560.148 107.189C559.326 107.189 558.708 107.385 558.292 107.775C557.877 108.158 557.67 108.776 557.67 109.631C557.67 110.892 558.113 111.657 559 111.926C559.253 112.007 559.509 112.048 559.77 112.048C560.51 112.048 561.218 111.763 561.894 111.193C562.089 111.022 562.264 110.839 562.418 110.644V108.203Z" fill="#6959CB"/>
<path d="M574.43 113.244C571.525 113.244 570.072 111.893 570.072 109.191V101.464H568.595V100.512H570.072V96.7769C570.813 96.7769 571.716 96.5856 572.782 96.2031C573.026 96.1136 573.201 96.0363 573.307 95.9712V100.512H577.323V101.464H573.307V110.07C573.307 110.819 573.462 111.36 573.771 111.694C574.088 112.019 574.507 112.182 575.028 112.182C575.842 112.182 576.575 111.82 577.226 111.096L577.873 111.669C577.287 112.394 576.489 112.878 575.48 113.122C575.146 113.203 574.796 113.244 574.43 113.244Z" fill="#6959CB"/>
<path d="M583.854 97.5337C583.528 97.8592 583.134 98.022 582.67 98.022C582.206 98.022 581.807 97.8633 581.474 97.5459C581.14 97.2204 580.973 96.8786 580.973 96.5205C580.973 95.9183 581.136 95.4544 581.461 95.1289C581.787 94.8034 582.186 94.6406 582.658 94.6406C583.406 94.6406 583.923 94.9824 584.208 95.666C584.298 95.8695 584.342 96.0892 584.342 96.3252C584.342 96.8053 584.18 97.2082 583.854 97.5337ZM579.069 112.048H581.046V101.464H579.24V100.512H584.281V112.048H586.259V113H579.069V112.048Z" fill="#6959CB"/>
<path d="M587.553 106.75C587.553 104.829 588.163 103.275 589.384 102.087C590.604 100.899 592.139 100.305 593.986 100.305C595.841 100.305 597.367 100.899 598.563 102.087C599.768 103.267 600.37 104.821 600.37 106.75C600.37 108.671 599.772 110.233 598.576 111.438C597.388 112.642 595.862 113.244 593.998 113.244C592.134 113.244 590.592 112.642 589.372 111.438C588.159 110.233 587.553 108.671 587.553 106.75ZM593.961 112.231C595.605 112.231 596.57 111.112 596.854 108.874C596.936 108.207 596.977 107.491 596.977 106.726C596.977 105.008 596.781 103.723 596.391 102.868C595.91 101.843 595.101 101.33 593.961 101.33C592.318 101.33 591.353 102.412 591.068 104.577C590.987 105.236 590.946 105.952 590.946 106.726C590.946 108.451 591.142 109.753 591.532 110.632C592.021 111.698 592.83 112.231 593.961 112.231Z" fill="#6959CB"/>
<path d="M610.697 101.464C609.371 101.464 608.17 102.079 607.096 103.308V112.048H609.318V113H601.945V112.048H603.922V101.464H601.933V100.512H607.096V102.075C608.317 100.895 609.713 100.305 611.283 100.305C612.366 100.305 613.326 100.581 614.164 101.135C615.246 101.851 615.788 102.99 615.788 104.553V112.048H617.765V113H610.392V112.048H612.614V104.309C612.614 103.356 612.512 102.709 612.309 102.368C612.113 102.026 611.889 101.79 611.637 101.66C611.393 101.529 611.08 101.464 610.697 101.464Z" fill="#6959CB"/>
</svg>
